<?xml version="1.0" encoding="utf-8"?>
<svg version="1.1" xmlns="http://www.w3.org/2000/svg" xmlns:xlink="http://www.w3.org/1999/xlink"
	x="0px" y="0px"
	viewBox="0 0 750 500" style="enable-background:new 0 0 750 500;" xml:space="preserve">
<g id="OBJECTS">
	<g>
		<linearGradient id="SVGID_1_" gradientUnits="userSpaceOnUse" x1="375" y1="443.3782" x2="375" y2="379.6419">
			<stop  offset="0" style="stop-color:#01000A;stop-opacity:0"/>
			<stop  offset="1" style="stop-color:#01000A"/>
		</linearGradient>
		<path style="fill:#535259;" d="M646.792,420.449H103.208c-3.812,0-6.901-3.09-6.901-6.902V64.235c0-3.812,3.09-6.902,6.901-6.902
			h543.584c3.812,0,6.901,3.09,6.901,6.902v349.313C653.693,417.359,650.604,420.449,646.792,420.449z"/>
		<path style="fill:#FFCA58;" d="M653.582,78.863V63.567c0-3.443-2.791-6.233-6.233-6.233H102.652c-3.443,0-6.233,2.791-6.233,6.233
			v15.296H653.582z"/>
		<g style="opacity:0.52;">
			<path style="fill:#737278;" d="M338.916,180.634H170.608c-6.504,0-11.825-5.321-11.825-11.825l0,0
				c0-6.503,5.321-11.825,11.825-11.825h168.308c6.504,0,11.825,5.321,11.825,11.825l0,0
				C350.74,175.313,345.419,180.634,338.916,180.634z"/>
			<path style="fill:#737278;" d="M575.88,162.077H439.406c-5.273,0-9.588-4.315-9.588-9.588l0,0c0-5.273,4.315-9.588,9.588-9.588
				H575.88c5.273,0,9.588,4.315,9.588,9.588l0,0C585.468,157.762,581.153,162.077,575.88,162.077z"/>
			<path style="fill:#737278;" d="M541.466,137.525h-84.154c-3.252,0-5.912-2.66-5.912-5.912l0,0c0-3.252,2.66-5.912,5.912-5.912
				h84.154c3.252,0,5.912,2.661,5.912,5.912l0,0C547.378,134.865,544.718,137.525,541.466,137.525z"/>
			<path style="fill:#737278;" d="M537.815,225.594h-84.154c-3.252,0-5.912-2.661-5.912-5.912l0,0c0-3.252,2.66-5.912,5.912-5.912
				h84.154c3.252,0,5.912,2.661,5.912,5.912l0,0C543.728,222.933,541.067,225.594,537.815,225.594z"/>
			<path style="fill:#737278;" d="M528.46,271.434h-84.154c-3.252,0-5.912-2.661-5.912-5.912l0,0c0-3.252,2.661-5.912,5.912-5.912
				h84.154c3.252,0,5.912,2.66,5.912,5.912l0,0C534.372,268.774,531.712,271.434,528.46,271.434z"/>
			<path style="fill:#737278;" d="M285.758,148.813h-84.154c-3.252,0-5.912-2.661-5.912-5.912l0,0c0-3.252,2.661-5.912,5.912-5.912
				h84.154c3.252,0,5.912,2.661,5.912,5.912l0,0C291.67,146.152,289.009,148.813,285.758,148.813z"/>
			<path style="fill:#737278;" d="M325.436,215.089H196.69c-5.419,0-9.852-4.433-9.852-9.852l0,0c0-5.419,4.434-9.852,9.852-9.852
				h128.746c5.419,0,9.852,4.434,9.852,9.852l0,0C335.288,210.656,330.855,215.089,325.436,215.089z"/>
			<path style="fill:#737278;" d="M291.76,231.228H163.014c-5.419,0-9.852-4.434-9.852-9.852l0,0c0-5.419,4.434-9.852,9.852-9.852
				H291.76c5.419,0,9.852,4.434,9.852,9.852l0,0C301.613,226.795,297.179,231.228,291.76,231.228z"/>
			<path style="fill:#737278;" d="M545.65,250.658H416.904c-5.419,0-9.852-4.434-9.852-9.852l0,0c0-5.419,4.434-9.852,9.852-9.852
				H545.65c5.419,0,9.852,4.434,9.852,9.852l0,0C555.502,246.225,551.069,250.658,545.65,250.658z"/>
			<path style="fill:#737278;" d="M548.048,208.835H419.302c-5.419,0-9.852-4.434-9.852-9.852l0,0c0-5.419,4.434-9.852,9.852-9.852
				h128.746c5.419,0,9.852,4.434,9.852,9.852l0,0C557.901,204.402,553.467,208.835,548.048,208.835z"/>
			<path style="fill:#737278;" d="M323.069,268.384H194.323c-5.419,0-9.852-4.434-9.852-9.852l0,0c0-5.419,4.434-9.852,9.852-9.852
				h128.746c5.419,0,9.852,4.434,9.852,9.852l0,0C332.921,263.951,328.487,268.384,323.069,268.384z"/>
		</g>
		<g>
			<g>
				
					<line style="fill:none;stroke:#E0E0E2;stroke-width:2.0008;stroke-linecap:round;stroke-linejoin:round;stroke-miterlimit:10;" x1="251.294" y1="186.878" x2="269.903" y2="186.878"/>
				
					<line style="fill:none;stroke:#E0E0E2;stroke-width:2.0008;stroke-linecap:round;stroke-linejoin:round;stroke-miterlimit:10;" x1="254.578" y1="192.283" x2="273.187" y2="192.283"/>
				
					<line style="fill:none;stroke:#E0E0E2;stroke-width:2.0008;stroke-linecap:round;stroke-linejoin:round;stroke-miterlimit:10;" x1="323.898" y1="169.273" x2="342.507" y2="169.273"/>
				
					<line style="fill:none;stroke:#E0E0E2;stroke-width:2.0008;stroke-linecap:round;stroke-linejoin:round;stroke-miterlimit:10;" x1="320.41" y1="175.917" x2="339.019" y2="175.917"/>
				
					<line style="fill:none;stroke:#E0E0E2;stroke-width:2.0008;stroke-linecap:round;stroke-linejoin:round;stroke-miterlimit:10;" x1="346.897" y1="239.693" x2="365.506" y2="239.693"/>
				
					<line style="fill:none;stroke:#E0E0E2;stroke-width:2.0008;stroke-linecap:round;stroke-linejoin:round;stroke-miterlimit:10;" x1="381.355" y1="236.039" x2="399.964" y2="236.039"/>
				
					<line style="fill:none;stroke:#E0E0E2;stroke-width:2.0008;stroke-linecap:round;stroke-linejoin:round;stroke-miterlimit:10;" x1="437.336" y1="268.474" x2="455.945" y2="268.474"/>
				
					<line style="fill:none;stroke:#E0E0E2;stroke-width:2.0008;stroke-linecap:round;stroke-linejoin:round;stroke-miterlimit:10;" x1="438.993" y1="273.913" x2="457.602" y2="273.913"/>
				
					<line style="fill:none;stroke:#E0E0E2;stroke-width:2.0008;stroke-linecap:round;stroke-linejoin:round;stroke-miterlimit:10;" x1="490.484" y1="161.966" x2="509.093" y2="161.966"/>
				
					<line style="fill:none;stroke:#E0E0E2;stroke-width:2.0008;stroke-linecap:round;stroke-linejoin:round;stroke-miterlimit:10;" x1="391.14" y1="152.665" x2="409.749" y2="152.665"/>
				
					<line style="fill:none;stroke:#E0E0E2;stroke-width:2.0008;stroke-linecap:round;stroke-linejoin:round;stroke-miterlimit:10;" x1="388.5" y1="157.315" x2="407.109" y2="157.315"/>
				
					<line style="fill:none;stroke:#E0E0E2;stroke-width:2.0008;stroke-linecap:round;stroke-linejoin:round;stroke-miterlimit:10;" x1="482.906" y1="165.952" x2="501.515" y2="165.952"/>
				
					<line style="fill:none;stroke:#E0E0E2;stroke-width:2.0008;stroke-linecap:round;stroke-linejoin:round;stroke-miterlimit:10;" x1="341.512" y1="244.011" x2="360.121" y2="244.011"/>
			</g>
			<g>
				
					<text transform="matrix(1 0 0 1 246.2157 200.7539)" style="fill:#E0E0E2; font-family:'Bungee-Regular'; font-size:118.7782px; letter-spacing:-2;">WEB</text>
			</g>
			
				<text transform="matrix(1 0 0 1 247.6102 283.2271)" style="fill:#E0E0E2; font-family:'Bungee-Regular'; font-size:101.6427px; letter-spacing:-2;">SITE</text>
			<g>
				<g>
					<path style="fill:#FFCA58;stroke:#323139;stroke-width:2.0008;stroke-miterlimit:10;" d="M242.127,246.174l-14.899,37.351
						h34.244l-14.899-37.351C245.772,244.165,242.928,244.165,242.127,246.174z"/>
					<polygon style="opacity:0.23;fill:#323139;stroke:#323139;stroke-width:2.0008;stroke-miterlimit:10;" points="
						228.999,279.086 227.228,283.525 261.473,283.525 259.702,279.086 					"/>
					
						<line style="fill:none;stroke:#FFEAA6;stroke-width:2.0008;stroke-linecap:round;stroke-linejoin:round;stroke-miterlimit:10;" x1="245.09" y1="250.261" x2="256.367" y2="277.974"/>
					<path style="fill:#FFA166;stroke:#323139;stroke-width:2.0008;stroke-miterlimit:10;" d="M263.946,286.132h-39.19
						c-1.1,0-1.999-0.9-1.999-1.999l0,0c0-1.1,0.9-1.999,1.999-1.999h39.19c1.1,0,1.999,0.9,1.999,1.999l0,0
						C265.945,285.232,265.045,286.132,263.946,286.132z"/>
					<path style="opacity:0.23;fill:#323139;" d="M263.946,284.133h-39.19c-0.734,0-1.372-0.406-1.72-1
						c-0.173,0.296-0.279,0.634-0.279,1c0,1.1,0.9,1.999,1.999,1.999h39.19c1.1,0,1.999-0.9,1.999-1.999c0-0.365-0.107-0.704-0.28-1
						C265.318,283.727,264.68,284.133,263.946,284.133z"/>
					<polygon style="fill:#323139;stroke:#323139;stroke-width:2.0008;stroke-miterlimit:10;" points="231.356,273.175 
						257.344,273.175 252.846,261.898 235.855,261.898 					"/>
					
						<line style="fill:none;stroke:#76757B;stroke-width:2.0008;stroke-linecap:round;stroke-linejoin:round;stroke-miterlimit:10;" x1="250.365" y1="263.226" x2="253.791" y2="271.644"/>
				</g>
				<g>
					<g>
						<g>
							
								<rect x="361.115" y="266.811" style="fill:#FFFFFF;stroke:#323139;stroke-width:2.0008;stroke-linecap:round;stroke-linejoin:round;stroke-miterlimit:10;" width="2.815" height="22.226"/>
							
								<rect x="361.115" y="266.811" style="opacity:0.57;fill:#323139;stroke:#323139;stroke-width:2.0008;stroke-miterlimit:10;" width="2.815" height="6.781"/>
							
								<line style="fill:none;stroke:#323139;stroke-width:2.0008;stroke-linecap:round;stroke-linejoin:round;stroke-miterlimit:10;" x1="358.986" y1="289.037" x2="366.06" y2="289.037"/>
						</g>
						<g>
							
								<rect x="401.068" y="266.811" style="fill:#FFFFFF;stroke:#323139;stroke-width:2.0008;stroke-linecap:round;stroke-linejoin:round;stroke-miterlimit:10;" width="2.815" height="22.226"/>
							
								<rect x="401.068" y="266.811" style="opacity:0.57;fill:#323139;stroke:#323139;stroke-width:2.0008;stroke-miterlimit:10;" width="2.815" height="6.781"/>
							
								<line style="fill:none;stroke:#323139;stroke-width:2.0008;stroke-linecap:round;stroke-linejoin:round;stroke-miterlimit:10;" x1="398.938" y1="289.037" x2="406.012" y2="289.037"/>
						</g>
					</g>
					<path style="fill:#FFA166;stroke:#323139;stroke-width:2.0008;stroke-miterlimit:10;" d="M414.365,267.676h-63.732
						c-1.012,0-1.833-0.82-1.833-1.832v-11.142c0-1.012,0.82-1.832,1.833-1.832h63.732c1.012,0,1.832,0.82,1.832,1.832v11.142
						C416.197,266.856,415.377,267.676,414.365,267.676z"/>
					<path style="opacity:0.23;fill:#323139;stroke:#323139;stroke-width:2.0008;stroke-miterlimit:10;" d="M414.365,260.273
						h-63.732c-1.012,0-1.833-0.82-1.833-1.832v7.403c0,1.012,0.821,1.832,1.833,1.832h63.732c1.012,0,1.832-0.82,1.832-1.832
						v-7.403C416.197,259.453,415.377,260.273,414.365,260.273z"/>
					<g>
						<polygon style="fill:#323139;stroke:#323139;stroke-width:2.0008;stroke-miterlimit:10;" points="352.158,267.676 
							356.225,267.676 361.229,252.87 357.163,252.87 						"/>
						<polygon style="fill:#323139;stroke:#323139;stroke-width:2.0008;stroke-miterlimit:10;" points="362.48,267.676 
							366.547,267.676 371.551,252.87 367.485,252.87 						"/>
						<polygon style="fill:#323139;stroke:#323139;stroke-width:2.0008;stroke-miterlimit:10;" points="372.802,267.676 
							376.869,267.676 381.873,252.87 377.807,252.87 						"/>
						<polygon style="fill:#323139;stroke:#323139;stroke-width:2.0008;stroke-miterlimit:10;" points="383.125,267.676 
							387.191,267.676 392.196,252.87 388.129,252.87 						"/>
						<polygon style="fill:#323139;stroke:#323139;stroke-width:2.0008;stroke-miterlimit:10;" points="393.447,267.676 
							397.513,267.676 402.518,252.87 398.451,252.87 						"/>
						<polygon style="fill:#323139;stroke:#323139;stroke-width:2.0008;stroke-miterlimit:10;" points="403.769,267.676 
							407.835,267.676 412.84,252.87 408.773,252.87 						"/>
					</g>
					
						<line style="opacity:0.42;fill:none;stroke:#FFEAA6;stroke-width:2.0008;stroke-linecap:round;stroke-linejoin:round;stroke-miterlimit:10;" x1="353.1" y1="255.529" x2="411.898" y2="255.529"/>
				</g>
				<g>
					<path style="fill:#FFCA58;stroke:#323139;stroke-width:2.0008;stroke-miterlimit:10;" d="M263.721,252.419l-14.899,37.351
						h34.244l-14.899-37.351C267.367,250.41,264.523,250.41,263.721,252.419z"/>
					<polygon style="opacity:0.23;fill:#323139;stroke:#323139;stroke-width:2.0008;stroke-miterlimit:10;" points="
						250.593,285.331 248.822,289.769 283.067,289.769 281.296,285.331 					"/>
					
						<line style="fill:none;stroke:#FFEAA6;stroke-width:2.0008;stroke-linecap:round;stroke-linejoin:round;stroke-miterlimit:10;" x1="266.684" y1="256.506" x2="277.961" y2="284.219"/>
					<path style="fill:#FFA166;stroke:#323139;stroke-width:2.0008;stroke-miterlimit:10;" d="M285.54,292.377h-39.19
						c-1.1,0-1.999-0.9-1.999-1.999l0,0c0-1.099,0.9-1.999,1.999-1.999h39.19c1.1,0,1.999,0.9,1.999,1.999l0,0
						C287.539,291.477,286.639,292.377,285.54,292.377z"/>
					<path style="opacity:0.23;fill:#323139;" d="M285.54,290.377h-39.19c-0.734,0-1.372-0.406-1.72-1
						c-0.173,0.296-0.279,0.634-0.279,1c0,1.1,0.9,1.999,1.999,1.999h39.19c1.1,0,1.999-0.9,1.999-1.999
						c0-0.365-0.106-0.704-0.279-1C286.912,289.972,286.274,290.377,285.54,290.377z"/>
					<polygon style="fill:#323139;stroke:#323139;stroke-width:2.0008;stroke-miterlimit:10;" points="252.951,279.42 
						278.939,279.42 274.44,268.143 257.449,268.143 					"/>
					
						<line style="fill:none;stroke:#76757B;stroke-width:2.0008;stroke-linecap:round;stroke-linejoin:round;stroke-miterlimit:10;" x1="271.96" y1="269.47" x2="275.385" y2="277.889"/>
				</g>
				
					<line style="fill:none;stroke:#323139;stroke-width:2.0008;stroke-linecap:round;stroke-linejoin:round;stroke-miterlimit:10;" x1="448.298" y1="286.522" x2="471.549" y2="286.522"/>
				
					<line style="fill:none;stroke:#323139;stroke-width:2.0008;stroke-linecap:round;stroke-linejoin:round;stroke-miterlimit:10;" x1="462.913" y1="290.325" x2="468.237" y2="290.325"/>
				
					<line style="fill:none;stroke:#323139;stroke-width:2.0008;stroke-linecap:round;stroke-linejoin:round;stroke-miterlimit:10;" x1="361.115" y1="293.459" x2="363.93" y2="293.459"/>
				
					<line style="fill:none;stroke:#323139;stroke-width:2.0008;stroke-linecap:round;stroke-linejoin:round;stroke-miterlimit:10;" x1="337.022" y1="287.39" x2="351.949" y2="287.39"/>
				
					<line style="fill:none;stroke:#323139;stroke-width:2.0008;stroke-linecap:round;stroke-linejoin:round;stroke-miterlimit:10;" x1="411.898" y1="284.897" x2="420.911" y2="284.897"/>
				
					<line style="fill:none;stroke:#323139;stroke-width:2.0008;stroke-linecap:round;stroke-linejoin:round;stroke-miterlimit:10;" x1="329.715" y1="287.39" x2="324.4" y2="287.39"/>
				
					<line style="fill:none;stroke:#323139;stroke-width:2.0008;stroke-linecap:round;stroke-linejoin:round;stroke-miterlimit:10;" x1="257.344" y1="297.38" x2="278.939" y2="297.38"/>
				
					<line style="fill:none;stroke:#323139;stroke-width:2.0008;stroke-linecap:round;stroke-linejoin:round;stroke-miterlimit:10;" x1="228.01" y1="292.377" x2="233.027" y2="292.377"/>
				
					<line style="fill:none;stroke:#323139;stroke-width:2.0008;stroke-linecap:round;stroke-linejoin:round;stroke-miterlimit:10;" x1="231.872" y1="235.636" x2="249.848" y2="235.636"/>
				
					<line style="fill:none;stroke:#323139;stroke-width:2.0008;stroke-linecap:round;stroke-linejoin:round;stroke-miterlimit:10;" x1="324.4" y1="257.896" x2="342.005" y2="257.896"/>
				
					<line style="fill:none;stroke:#323139;stroke-width:2.0008;stroke-linecap:round;stroke-linejoin:round;stroke-miterlimit:10;" x1="327.057" y1="251.318" x2="333.202" y2="251.318"/>
				
					<line style="fill:none;stroke:#323139;stroke-width:2.0008;stroke-linecap:round;stroke-linejoin:round;stroke-miterlimit:10;" x1="427.288" y1="246.033" x2="408.304" y2="246.033"/>
				
					<line style="fill:none;stroke:#323139;stroke-width:2.0008;stroke-linecap:round;stroke-linejoin:round;stroke-miterlimit:10;" x1="427.288" y1="240.719" x2="417.796" y2="240.719"/>
				
					<line style="fill:none;stroke:#323139;stroke-width:2.0008;stroke-linecap:round;stroke-linejoin:round;stroke-miterlimit:10;" x1="437.336" y1="236.039" x2="448.298" y2="236.039"/>
				
					<line style="fill:none;stroke:#323139;stroke-width:2.0008;stroke-linecap:round;stroke-linejoin:round;stroke-miterlimit:10;" x1="439.661" y1="241.686" x2="444.976" y2="241.686"/>
				
					<line style="fill:none;stroke:#323139;stroke-width:2.0008;stroke-linecap:round;stroke-linejoin:round;stroke-miterlimit:10;" x1="419.399" y1="173.592" x2="444.976" y2="173.592"/>
				
					<line style="fill:none;stroke:#323139;stroke-width:2.0008;stroke-linecap:round;stroke-linejoin:round;stroke-miterlimit:10;" x1="422.389" y1="178.242" x2="432.188" y2="178.242"/>
				
					<line style="fill:none;stroke:#323139;stroke-width:2.0008;stroke-linecap:round;stroke-linejoin:round;stroke-miterlimit:10;" x1="344.486" y1="151.337" x2="358.35" y2="151.337"/>
				
					<line style="fill:none;stroke:#323139;stroke-width:2.0008;stroke-linecap:round;stroke-linejoin:round;stroke-miterlimit:10;" x1="348.801" y1="157.315" x2="352.832" y2="157.315"/>
				
					<line style="fill:none;stroke:#323139;stroke-width:2.0008;stroke-linecap:round;stroke-linejoin:round;stroke-miterlimit:10;" x1="306.463" y1="131.074" x2="319.085" y2="131.074"/>
				
					<line style="fill:none;stroke:#323139;stroke-width:2.0008;stroke-linecap:round;stroke-linejoin:round;stroke-miterlimit:10;" x1="309.785" y1="137.053" x2="312.774" y2="137.053"/>
				
					<line style="fill:none;stroke:#323139;stroke-width:2.0008;stroke-linecap:round;stroke-linejoin:round;stroke-miterlimit:10;" x1="243.066" y1="160.637" x2="259.989" y2="160.637"/>
				
					<line style="fill:none;stroke:#323139;stroke-width:2.0008;stroke-linecap:round;stroke-linejoin:round;stroke-miterlimit:10;" x1="247.61" y1="165.952" x2="254.977" y2="165.952"/>
				
					<line style="fill:none;stroke:#323139;stroke-width:2.0008;stroke-linecap:round;stroke-linejoin:round;stroke-miterlimit:10;" x1="497.462" y1="132.735" x2="483.507" y2="132.735"/>
				
					<line style="fill:none;stroke:#323139;stroke-width:2.0008;stroke-linecap:round;stroke-linejoin:round;stroke-miterlimit:10;" x1="495.2" y1="137.053" x2="487.734" y2="137.053"/>
				
					<line style="fill:none;stroke:#323139;stroke-width:2.0008;stroke-linecap:round;stroke-linejoin:round;stroke-miterlimit:10;" x1="401.068" y1="293.459" x2="403.883" y2="293.459"/>
				
					<line style="fill:none;stroke:#323139;stroke-width:2.0008;stroke-linecap:round;stroke-linejoin:round;stroke-miterlimit:10;" x1="242.143" y1="229.279" x2="259.844" y2="229.279"/>
				
					<line style="fill:none;stroke:#323139;stroke-width:2.0008;stroke-linecap:round;stroke-linejoin:round;stroke-miterlimit:10;" x1="476.499" y1="249.212" x2="494.474" y2="249.212"/>
				
					<line style="fill:none;stroke:#323139;stroke-width:2.0008;stroke-linecap:round;stroke-linejoin:round;stroke-miterlimit:10;" x1="483.45" y1="244.585" x2="501.151" y2="244.585"/>
			</g>
			<g>
				<g>
					
						<rect x="504.324" y="212.717" style="fill:#FFFFFF;stroke:#323139;stroke-width:2.0008;stroke-linecap:round;stroke-linejoin:round;stroke-miterlimit:10;" width="3.325" height="75.25"/>
					
						<rect x="504.324" y="212.717" style="opacity:0.57;fill:#323139;stroke:#323139;stroke-width:2.0008;stroke-miterlimit:10;" width="3.325" height="8.01"/>
					
						<line style="fill:none;stroke:#323139;stroke-width:2.0008;stroke-linecap:round;stroke-linejoin:round;stroke-miterlimit:10;" x1="501.809" y1="287.967" x2="510.165" y2="287.967"/>
				</g>
				<g>
					<g>
						<path style="fill:#FFA166;stroke:#323139;stroke-width:2.0008;stroke-miterlimit:10;" d="M532.201,191.63l-20.972,20.972
							c-2.895,2.895-7.588,2.895-10.483,0l-20.972-20.972c-2.895-2.895-2.895-7.588,0-10.483l20.972-20.972
							c2.895-2.895,7.588-2.895,10.483,0l20.972,20.972C535.096,184.041,535.096,188.735,532.201,191.63z"/>
					</g>
					<g>
						<g>
							<path style="fill:#FFA166;" d="M526.043,190.398l-16.046,16.046c-2.215,2.215-5.806,2.215-8.02,0l-16.046-16.046
								c-2.215-2.215-2.215-5.806,0-8.02l16.046-16.046c2.215-2.215,5.806-2.215,8.02,0l16.046,16.046
								C528.258,184.592,528.258,188.183,526.043,190.398z"/>
							
								<path style="fill:none;stroke:#323139;stroke-width:2.0007;stroke-linecap:round;stroke-linejoin:round;stroke-dasharray:4.5945,3.8287;" d="
								M526.043,190.398l-16.046,16.046c-2.215,2.215-5.806,2.215-8.02,0l-16.046-16.046c-2.215-2.215-2.215-5.806,0-8.02
								l16.046-16.046c2.215-2.215,5.806-2.215,8.02,0l16.046,16.046C528.258,184.592,528.258,188.183,526.043,190.398z"/>
						</g>
					</g>
					<path style="opacity:0.23;fill:#323139;stroke:#323139;stroke-width:2.0008;stroke-miterlimit:10;" d="M532.201,181.931
						l-20.972,20.972c-2.895,2.895-7.588,2.895-10.483,0l-20.972-20.972c-0.122-0.122-0.209-0.264-0.321-0.392
						c-2.539,2.912-2.452,7.318,0.321,10.091l20.972,20.972c2.895,2.895,7.588,2.895,10.483,0l20.972-20.972
						c2.773-2.773,2.86-7.179,0.321-10.091C532.41,181.667,532.323,181.809,532.201,181.931z"/>
					
						<text transform="matrix(1 0 0 1 500.2938 196.2393)" style="fill:#323139; font-family:'Bungee-Regular'; font-size:27.5073px;">!</text>
				</g>
			</g>
			<g>
				<path style="fill:#FFCA58;stroke:#323139;stroke-width:2.0307;stroke-miterlimit:10;" d="M384.578,112.625
					c-2.539-9.618-12.325-15.459-22.018-13.066c-9.693,2.393-15.636,12.117-13.408,21.812L384.578,112.625z"/>
				
					<path style="fill:#FFCA58;stroke:#323139;stroke-width:2.0307;stroke-linecap:round;stroke-linejoin:round;stroke-miterlimit:10;" d="
					M360.962,115.919l-4.076-12.496c-0.583-2.362,0.872-4.771,3.234-5.354l3.906-0.964c2.362-0.583,4.771,0.872,5.354,3.234
					l2.208,12.958"/>
				<path style="opacity:0.23;fill:#323139;" d="M349.161,113.227c-0.595,2.604-0.646,5.372-0.009,8.143l35.426-8.745
					c-0.726-2.749-2.059-5.176-3.797-7.204L349.161,113.227z"/>
				<path style="fill:#FFA166;stroke:#323139;stroke-width:2.0307;stroke-miterlimit:10;" d="M385.773,115.199l-36.481,9.006
					c-1.488,0.367-3.005-0.549-3.372-2.037l0,0c-0.367-1.488,0.549-3.005,2.037-3.372l36.481-9.006
					c1.488-0.367,3.005,0.549,3.372,2.037l0,0C388.178,113.315,387.261,114.832,385.773,115.199z"/>
				<path style="opacity:0.23;fill:#323139;" d="M385.028,112.18l-36.481,9.006c-0.93,0.229-1.871-0.042-2.536-0.642
					c-0.186,0.504-0.229,1.066-0.091,1.624c0.367,1.488,1.885,2.404,3.372,2.037l36.481-9.006c1.488-0.367,2.404-1.885,2.037-3.372
					c-0.138-0.558-0.437-1.035-0.836-1.395C386.664,111.272,385.958,111.951,385.028,112.18z"/>
			</g>
		</g>
		
			<line style="fill:none;stroke:#323139;stroke-width:1.7897;stroke-linecap:round;stroke-linejoin:round;stroke-miterlimit:10;" x1="244.987" y1="307.496" x2="505.013" y2="307.496"/>
		<g>
			<text transform="matrix(1 0 0 1 251.9747 337.19)"><tspan x="35" y="0" style="fill:#E0E0E2; font-family:'AntipastoPro-DemiBold'; font-size:23px;">EM</tspan><tspan x="73.622" y="0" style="fill:#323139; font-family:'AntipastoPro-DemiBold'; font-size:23px;"> </tspan><tspan x="79.417" y="0" style="fill:#FFA166; font-family:'AntipastoPro-DemiBold'; font-size:23px;">CONSTRUÇÃO</tspan></text>
		</g>
		<path style="opacity:0.3;fill:#323139;" d="M642.142,68.098c0,3.658-2.965,6.623-6.623,6.623c-3.658,0-6.623-2.965-6.623-6.623
			c0-3.658,2.965-6.623,6.623-6.623C639.177,61.475,642.142,64.44,642.142,68.098z"/>
		<path style="opacity:0.3;fill:#323139;" d="M626.155,68.098c0,3.658-2.965,6.623-6.623,6.623c-3.658,0-6.623-2.965-6.623-6.623
			c0-3.658,2.965-6.623,6.623-6.623C623.189,61.475,626.155,64.44,626.155,68.098z"/>
		<path style="opacity:0.3;fill:#323139;" d="M610.167,68.098c0,3.658-2.965,6.623-6.623,6.623s-6.623-2.965-6.623-6.623
			c0-3.658,2.965-6.623,6.623-6.623S610.167,64.44,610.167,68.098z"/>
	</g>
</g>
</svg>